<?xml version="1.0" encoding="UTF-8"?>
<svg width="100px" height="139px" viewBox="0 0 100 139" version="1.1" xmlns="http://www.w3.org/2000/svg" xmlns:xlink="http://www.w3.org/1999/xlink">
    <!-- Generator: Sketch 44.1 (41455) - http://www.bohemiancoding.com/sketch -->
    <title>Group 3</title>
    <desc>Created with Sketch.</desc>
    <defs></defs>
    <g id="Minimal" stroke="none" stroke-width="1" fill="none" fill-rule="evenodd">
        <g id="Artboard" transform="translate(-502.000000, -198.000000)">
            <g id="Group-3" transform="translate(502.000000, 198.000000)">
                <path d="M30.8808594,138 L27.3066406,138 L27.3066406,130.347656 C27.3066406,129.402339 27.1484391,128.693362 26.8320312,128.220703 C26.5156234,127.748045 26.0175815,127.511719 25.3378906,127.511719 C24.4238236,127.511719 23.7597677,127.847653 23.3457031,128.519531 C22.9316386,129.19141 22.7246094,130.296867 22.7246094,131.835938 L22.7246094,138 L19.1503906,138 L19.1503906,124.898438 L21.8808594,124.898438 L22.3613281,126.574219 L22.5605469,126.574219 C22.9121111,125.972653 23.4199186,125.501955 24.0839844,125.162109 C24.7480502,124.822264 25.5097613,124.652344 26.3691406,124.652344 C28.3300879,124.652344 29.6581996,125.292962 30.3535156,126.574219 L30.6699219,126.574219 C31.0214861,125.964841 31.5390591,125.492189 32.2226562,125.15625 C32.9062534,124.820311 33.6777301,124.652344 34.5371094,124.652344 C36.0214918,124.652344 37.1445274,125.033199 37.90625,125.794922 C38.6679726,126.556644 39.0488281,127.777335 39.0488281,129.457031 L39.0488281,138 L35.4628906,138 L35.4628906,130.347656 C35.4628906,129.402339 35.3046891,128.693362 34.9882812,128.220703 C34.6718734,127.748045 34.1738315,127.511719 33.4941406,127.511719 C32.6191362,127.511719 31.9648459,127.824216 31.53125,128.449219 C31.0976541,129.074222 30.8808594,130.066399 30.8808594,131.425781 L30.8808594,138 Z M48.1425781,127.195312 C47.3847618,127.195312 46.7910178,127.435544 46.3613281,127.916016 C45.9316385,128.396487 45.6855472,129.078121 45.6230469,129.960938 L50.6386719,129.960938 C50.6230468,129.078121 50.3925804,128.396487 49.9472656,127.916016 C49.5019509,127.435544 48.9003944,127.195312 48.1425781,127.195312 Z M48.6464844,138.234375 C46.5370988,138.234375 44.8886778,137.65235 43.7011719,136.488281 C42.5136659,135.324213 41.9199219,133.675792 41.9199219,131.542969 C41.9199219,129.347645 42.4687445,127.650397 43.5664062,126.451172 C44.664068,125.251947 46.1816309,124.652344 48.1191406,124.652344 C49.9707124,124.652344 51.4121042,125.179682 52.4433594,126.234375 C53.4746145,127.289068 53.9902344,128.746084 53.9902344,130.605469 L53.9902344,132.339844 L45.5410156,132.339844 C45.5800783,133.355474 45.8808566,134.148435 46.4433594,134.71875 C47.0058622,135.289065 47.7949168,135.574219 48.8105469,135.574219 C49.5996133,135.574219 50.3456996,135.492188 51.0488281,135.328125 C51.7519566,135.164062 52.4863243,134.902346 53.2519531,134.542969 L53.2519531,137.308594 C52.62695,137.621095 51.9589879,137.853515 51.2480469,138.005859 C50.5371058,138.158204 49.669927,138.234375 48.6464844,138.234375 Z M66.0371094,134.109375 C66.0371094,135.453132 65.5703172,136.476559 64.6367188,137.179688 C63.7031203,137.882816 62.3066499,138.234375 60.4472656,138.234375 C59.4941359,138.234375 58.681644,138.169923 58.0097656,138.041016 C57.3378873,137.912109 56.7089873,137.722657 56.1230469,137.472656 L56.1230469,134.519531 C56.7871127,134.832033 57.5351521,135.093749 58.3671875,135.304688 C59.1992229,135.515626 59.9316375,135.621094 60.5644531,135.621094 C61.8613346,135.621094 62.5097656,135.246097 62.5097656,134.496094 C62.5097656,134.214842 62.423829,133.986329 62.2519531,133.810547 C62.0800773,133.634765 61.7832052,133.435548 61.3613281,133.212891 C60.939451,132.990233 60.3769566,132.73047 59.6738281,132.433594 C58.6660106,132.011717 57.9257836,131.621096 57.453125,131.261719 C56.9804664,130.902342 56.6367198,130.490237 56.421875,130.025391 C56.2070302,129.560545 56.0996094,128.988285 56.0996094,128.308594 C56.0996094,127.144525 56.5507767,126.244144 57.453125,125.607422 C58.3554733,124.9707 59.6347573,124.652344 61.2910156,124.652344 C62.8691485,124.652344 64.4042894,124.99609 65.8964844,125.683594 L64.8183594,128.261719 C64.1621061,127.980467 63.548831,127.750001 62.9785156,127.570312 C62.4082003,127.390624 61.8261748,127.300781 61.2324219,127.300781 C60.1777291,127.300781 59.6503906,127.585935 59.6503906,128.15625 C59.6503906,128.476564 59.8203108,128.753905 60.1601562,128.988281 C60.5000017,129.222657 61.2441349,129.57031 62.3925781,130.03125 C63.4160207,130.445315 64.1660132,130.832029 64.6425781,131.191406 C65.119143,131.550783 65.470702,131.964841 65.6972656,132.433594 C65.9238293,132.902346 66.0371094,133.460934 66.0371094,134.109375 Z M80.9199219,138 L77.3457031,138 L77.3457031,130.347656 C77.3457031,128.457022 76.6425852,127.511719 75.2363281,127.511719 C74.2363231,127.511719 73.5136741,127.851559 73.0683594,128.53125 C72.6230446,129.210941 72.4003906,130.312492 72.4003906,131.835938 L72.4003906,138 L68.8261719,138 L68.8261719,119.765625 L72.4003906,119.765625 L72.4003906,123.480469 C72.4003906,123.769533 72.3730471,124.449213 72.3183594,125.519531 L72.2363281,126.574219 L72.4238281,126.574219 C73.2207071,125.292962 74.4863195,124.652344 76.2207031,124.652344 C77.7597733,124.652344 78.9277304,125.066402 79.7246094,125.894531 C80.5214884,126.72266 80.9199219,127.910149 80.9199219,129.457031 L80.9199219,138 Z" id="mesh" fill="#FAFCFD"></path>
                <g id="Group-2">
                    <rect id="Rectangle-2" fill="#FAFCFD" x="20" y="30" width="40" height="16"></rect>
                    <rect id="Rectangle" fill="#2B96EE" x="30" y="0" width="16" height="80"></rect>
                    <rect id="Rectangle-2" fill="#FAFCFD" x="0" y="54" width="80" height="16"></rect>
                    <rect id="Rectangle" fill="#2B96EE" x="54" y="20" width="16" height="80"></rect>
                    <rect id="Rectangle-2" fill="#FAFCFD" x="50" y="30" width="50" height="16"></rect>
                </g>
            </g>
        </g>
    </g>
</svg>