<?xml version="1.0" encoding="UTF-8"?>
<svg width="16px" height="16px" viewBox="0 0 16 16" version="1.1" xmlns="http://www.w3.org/2000/svg" xmlns:xlink="http://www.w3.org/1999/xlink">
    <!-- Generator: Sketch 44.1 (41455) - http://www.bohemiancoding.com/sketch -->
    <title>Shape</title>
    <desc>Created with Sketch.</desc>
    <defs></defs>
    <g id="Minimal" stroke="none" stroke-width="1" fill="none" fill-rule="evenodd">
        <g id="Artboard" transform="translate(-256.000000, -54.000000)" fill-rule="nonzero" fill="currentColor">
            <path d="M272,68.4306667 L267.830148,64.294 C268.61439,63.224 269.07808,61.908 269.07808,60.4866667 C269.07808,56.91 266.144735,54 262.538704,54 C258.933345,54 256,56.91 256,60.4866667 C256,64.064 258.933345,66.9733333 262.538704,66.9733333 C263.905582,66.9733333 265.175018,66.5553333 266.226049,65.8413333 L270.418077,70 L272,68.4306667 L272,68.4306667 Z M257.91793,60.4866667 C257.91793,57.9586667 259.991096,55.902 262.539376,55.902 C265.087656,55.902 267.160822,57.9586667 267.160822,60.4866667 C267.160822,63.0146667 265.087656,65.0713333 262.539376,65.0713333 C259.990424,65.0713333 257.91793,63.0146667 257.91793,60.4866667 L257.91793,60.4866667 Z" id="Shape"></path>
        </g>
    </g>
</svg>
